<?xml version="1.0" encoding="utf-8"?>
<!-- Generator: Adobe Illustrator 21.0.0, SVG Export Plug-In . SVG Version: 6.00 Build 0)  -->
<svg version="1.1"
	 id="svg2908" inkscape:version="0.47 r22583" sodipodi:docname="New document 2" xmlns:cc="http://creativecommons.org/ns#" xmlns:dc="http://purl.org/dc/elements/1.1/" xmlns:inkscape="http://www.inkscape.org/namespaces/inkscape" xmlns:rdf="http://www.w3.org/1999/02/22-rdf-syntax-ns#" xmlns:sodipodi="http://sodipodi.sourceforge.net/DTD/sodipodi-0.dtd" xmlns:svg="http://www.w3.org/2000/svg"
	 xmlns="http://www.w3.org/2000/svg" xmlns:xlink="http://www.w3.org/1999/xlink" x="0px" y="0px" viewBox="0 0 950.3 1048.3"
	 style="enable-background:new 0 0 950.3 1048.3;" xml:space="preserve">
<style type="text/css">
	.st0{fill:url(#path2818_1_);}
	.st1{fill:url(#path2820_1_);}
	.st2{opacity:0.5992;fill:#FFFFFF;enable-background:new    ;}
	.st3{opacity:0.5459;filter:url(#filter3654);enable-background:new    ;}
	.st4{fill:#C92300;}
	.st5{fill:none;stroke:#FFFFFF;}
	.st6{filter:url(#filter3684);}
	.st7{fill:#DE4121;}
	.st8{opacity:0.9433;filter:url(#filter3684);enable-background:new    ;}
	.st9{fill:#DD4200;}
	.st10{opacity:0.1834;filter:url(#filter3654);enable-background:new    ;}
</style>
<filter  color-interpolation-filters="sRGB" height="3.6492729" id="filter3684" inkscape:collect="always" width="1.4083108" x="-0.20415542" y="-1.3246365">
	<feGaussianBlur  id="feGaussianBlur3686" inkscape:collect="always" stdDeviation="14.221876"></feGaussianBlur>
</filter>
<filter  color-interpolation-filters="sRGB" height="3.7566757" id="filter3654" inkscape:collect="always" width="1.4248641" x="-0.212432" y="-1.3783379">
	<feGaussianBlur  id="feGaussianBlur3656" inkscape:collect="always" stdDeviation="14.798438"></feGaussianBlur>
</filter>
<defs>
	
	
		<inkscape:perspective  id="perspective2916" inkscape:persp3d-origin="372.04724 : 350.78739 : 1" inkscape:vp_x="0 : 526.18109 : 1" inkscape:vp_y="0 : 1000 : 0" inkscape:vp_z="744.09448 : 526.18109 : 1" sodipodi:type="inkscape:persp3d">
		</inkscape:perspective>
	
		<inkscape:perspective  id="perspective2864" inkscape:persp3d-origin="0.5 : 0.33333333 : 1" inkscape:vp_x="0 : 0.5 : 1" inkscape:vp_y="0 : 1000 : 0" inkscape:vp_z="1 : 0.5 : 1" sodipodi:type="inkscape:persp3d">
		</inkscape:perspective>
</defs>
<sodipodi:namedview  bordercolor="#666666" borderopacity="1.0" id="base" inkscape:current-layer="layer1" inkscape:cx="321.59254" inkscape:cy="631.28672" inkscape:document-units="px" inkscape:pageopacity="0.0" inkscape:pageshadow="2" inkscape:window-height="1005" inkscape:window-maximized="0" inkscape:window-width="609" inkscape:window-x="6" inkscape:window-y="24" inkscape:zoom="0.35" pagecolor="#ffffff" showgrid="false">
	</sodipodi:namedview>
<g id="layer1" transform="translate(-53.407459,456.06003)" inkscape:groupmode="layer" inkscape:label="Layer 1">
	
		<radialGradient id="path2818_1_" cx="326.5296" cy="387.0591" r="104.8582" gradientTransform="matrix(2.3961 0 0 -3.5368 -261.1722 1572.5944)" gradientUnits="userSpaceOnUse">
		<stop  offset="0" style="stop-color:#FF7800"/>
		<stop  offset="1" style="stop-color:#B50300"/>
	</radialGradient>
	<path id="path2818" sodipodi:nodetypes="csssc" class="st0" d="M521.4-456.1C497.8-298.2,247.2-42.8,273,121.1
		c25.1,159.3,161,238.8,259.9,230.4C697.6,337.6,771.8,193.1,771.3,91C770.3-78.2,588.8-208.7,521.4-456.1z"/>
	
		<linearGradient id="path2820_1_" gradientUnits="userSpaceOnUse" x1="258.9279" y1="363.6545" x2="270.5833" y2="536.2365" gradientTransform="matrix(2.3961 0 0 -2.3961 -261.1721 1029.0693)">
		<stop  offset="0" style="stop-color:#FFF7F2"/>
		<stop  offset="1" style="stop-color:#FC6201;stop-opacity:0"/>
	</linearGradient>
	<path id="path2820" sodipodi:nodetypes="cscss" class="st1" d="M340.4,202.3c62.9,23.5,22.2-107.2,47.2-210.2
		c19.4-79.6,57.8-201.5,72.6-276.7c-34.1,73.2-85.2,150.8-93.9,164.5C310.8-33,244.7,166.6,340.4,202.3L340.4,202.3z"/>
	<path id="path2822" sodipodi:nodetypes="csczc" class="st2" d="M419.6,298.8c0,0,111.7,72.1,236.6-11.2
		c100.3-66.9,97.5-197,97.5-197S740,228.9,628.7,280.5C517.4,332,419.6,297.7,419.6,298.8L419.6,298.8z"/>
	
		<g id="path2824" sodipodi:cx="160.89676" sodipodi:cy="353.55865" sodipodi:rx="87.234589" sodipodi:ry="20.59931" sodipodi:type="arc" class="st3">
		<ellipse class="st4" cx="528.6" cy="387.6" rx="336.4" ry="74.4"/>
		<ellipse class="st5" cx="528.6" cy="387.6" rx="336.4" ry="74.4"/>
	</g>
	
		<g id="path3658" sodipodi:cx="160.89676" sodipodi:cy="353.55865" sodipodi:rx="83.594406" sodipodi:ry="12.883725" sodipodi:type="arc" class="st6">
		<path class="st7" d="M646.7,387.6c0,10.1-52.9,18.2-118.1,18.2s-118.1-8.1-118.1-18.2c0-10.1,52.9-18.2,118.1-18.2
			S646.7,377.6,646.7,387.6L646.7,387.6z"/>
	</g>
	
		<g id="path3688" sodipodi:cx="160.89676" sodipodi:cy="353.55865" sodipodi:rx="83.594406" sodipodi:ry="12.883725" sodipodi:type="arc" class="st8">
		<path class="st9" d="M595.7,387.6c0,5.7-30,10.3-67.1,10.3s-67.1-4.6-67.1-10.3c0-5.7,30-10.3,67.1-10.3S595.7,381.9,595.7,387.6
			L595.7,387.6z"/>
	</g>
	
		<g id="path3835" sodipodi:cx="160.89676" sodipodi:cy="353.55865" sodipodi:rx="87.234589" sodipodi:ry="20.59931" sodipodi:type="arc" class="st10">
		<ellipse class="st4" cx="528.6" cy="387.6" rx="205.7" ry="45.5"/>
		<ellipse class="st5" cx="528.6" cy="387.6" rx="205.7" ry="45.5"/>
	</g>
</g>
</svg>
